<svg width="199" height="41" viewBox="0 0 199 41" fill="none" xmlns="http://www.w3.org/2000/svg">
<path d="M53.9008 32.325C52.7008 32.325 51.5674 32.1167 50.5008 31.7C49.4341 31.2833 48.5508 30.7 47.8508 29.95C47.5174 29.6667 47.5258 29.375 47.8758 29.075C48.1758 28.8083 48.4591 28.8167 48.7258 29.1C49.3091 29.7167 50.0591 30.2 50.9758 30.55C51.8924 30.9 52.8674 31.075 53.9008 31.075C55.3341 31.075 56.4508 30.7833 57.2508 30.2C58.0508 29.6167 58.4508 28.8083 58.4508 27.775C58.4508 26.6917 58.0341 25.825 57.2008 25.175C56.3674 24.525 55.0674 24.0667 53.3008 23.8C51.5841 23.5167 50.3174 22.975 49.5008 22.175C48.6841 21.375 48.2758 20.2583 48.2758 18.825C48.2758 17.3417 48.7508 16.1917 49.7008 15.375C50.6508 14.5417 51.9674 14.125 53.6508 14.125C54.5174 14.125 55.4174 14.2917 56.3508 14.625C57.2841 14.9583 58.1508 15.4167 58.9508 16C59.2674 16.2667 59.3008 16.5583 59.0508 16.875C58.8008 17.2083 58.5174 17.25 58.2008 17C57.5174 16.4833 56.7674 16.0833 55.9508 15.8C55.1508 15.5167 54.3841 15.375 53.6508 15.375C52.3508 15.375 51.3341 15.6833 50.6008 16.3C49.8841 16.9 49.5258 17.7417 49.5258 18.825C49.5258 19.8917 49.8424 20.7333 50.4758 21.35C51.1258 21.95 52.1341 22.3583 53.5008 22.575C55.6341 22.8917 57.2008 23.475 58.2008 24.325C59.2008 25.1583 59.7008 26.3083 59.7008 27.775C59.7008 29.1917 59.1924 30.3083 58.1758 31.125C57.1591 31.925 55.7341 32.325 53.9008 32.325ZM62.4486 32.2C62.282 32.15 62.1653 32.05 62.0986 31.9C62.032 31.7333 62.032 31.5667 62.0986 31.4L68.3736 14.475C68.4903 14.2083 68.6903 14.075 68.9736 14.075C69.257 14.075 69.457 14.2083 69.5736 14.475L75.8736 31.4C75.9403 31.5667 75.932 31.7333 75.8486 31.9C75.782 32.05 75.6653 32.15 75.4986 32.2C75.3486 32.2667 75.1903 32.2583 75.0236 32.175C74.8736 32.1083 74.7653 31.9917 74.6986 31.825L68.9736 16.5L65.4986 25.775H70.2236C70.3903 25.775 70.532 25.8417 70.6486 25.975C70.7653 26.0917 70.8236 26.2417 70.8236 26.425C70.8236 26.5917 70.7653 26.7333 70.6486 26.85C70.532 26.9667 70.3903 27.025 70.2236 27.025H65.0236L63.2486 31.825C63.182 31.9917 63.0736 32.1083 62.9236 32.175C62.7736 32.2583 62.6153 32.2667 62.4486 32.2ZM81.9805 32.35C81.7971 32.35 81.6388 32.2917 81.5055 32.175C81.3888 32.0583 81.3305 31.9167 81.3305 31.75V15.75H75.9055C75.7388 15.75 75.5971 15.6917 75.4805 15.575C75.3638 15.4417 75.3055 15.2917 75.3055 15.125C75.3055 14.9583 75.3638 14.8167 75.4805 14.7C75.5971 14.5667 75.7388 14.5 75.9055 14.5H88.0055C88.1721 14.5 88.3138 14.5667 88.4305 14.7C88.5638 14.8167 88.6305 14.9583 88.6305 15.125C88.6305 15.2917 88.5638 15.4417 88.4305 15.575C88.3138 15.6917 88.1721 15.75 88.0055 15.75H82.5805V31.75C82.5805 31.9167 82.5221 32.0583 82.4055 32.175C82.2888 32.2917 82.1471 32.35 81.9805 32.35ZM97.1404 32.325C95.9571 32.325 94.9154 32.0833 94.0154 31.6C93.1321 31.1 92.4404 30.4083 91.9404 29.525C91.4571 28.6417 91.2154 27.6083 91.2154 26.425V14.8C91.2154 14.6167 91.2738 14.4667 91.3904 14.35C91.5238 14.2333 91.6738 14.175 91.8404 14.175C92.0238 14.175 92.1738 14.2333 92.2904 14.35C92.4071 14.4667 92.4654 14.6167 92.4654 14.8V26.425C92.4654 27.825 92.8904 28.95 93.7404 29.8C94.6071 30.65 95.7404 31.075 97.1404 31.075C98.5404 31.075 99.6654 30.65 100.515 29.8C101.365 28.95 101.79 27.825 101.79 26.425V14.8C101.79 14.6167 101.849 14.4667 101.965 14.35C102.099 14.2333 102.249 14.175 102.415 14.175C102.599 14.175 102.749 14.2333 102.865 14.35C102.982 14.4667 103.04 14.6167 103.04 14.8V26.425C103.04 27.6083 102.79 28.6417 102.29 29.525C101.807 30.4083 101.124 31.1 100.24 31.6C99.3571 32.0833 98.3238 32.325 97.1404 32.325ZM113.94 32.35C113.774 32.35 113.624 32.2917 113.49 32.175C113.374 32.0583 113.315 31.9167 113.315 31.75V15.125C113.315 14.9583 113.374 14.8167 113.49 14.7C113.624 14.5667 113.774 14.5 113.94 14.5H119.915C120.849 14.5 121.69 14.7333 122.44 15.2C123.207 15.65 123.815 16.2583 124.265 17.025C124.715 17.775 124.94 18.6083 124.94 19.525C124.94 20.4417 124.715 21.2833 124.265 22.05C123.815 22.8167 123.207 23.4333 122.44 23.9C121.69 24.35 120.849 24.575 119.915 24.575H114.565V31.75C114.565 31.9167 114.507 32.0583 114.39 32.175C114.274 32.2917 114.124 32.35 113.94 32.35ZM114.565 23.325H119.915C120.615 23.325 121.249 23.1583 121.815 22.825C122.382 22.475 122.832 22.0167 123.165 21.45C123.515 20.8667 123.69 20.225 123.69 19.525C123.69 18.825 123.515 18.1917 123.165 17.625C122.832 17.0583 122.382 16.6083 121.815 16.275C121.249 15.925 120.615 15.75 119.915 15.75H114.565V23.325ZM128.394 32C128.227 32 128.077 31.9417 127.944 31.825C127.827 31.6917 127.769 31.5417 127.769 31.375V15.125C127.769 14.9583 127.827 14.8167 127.944 14.7C128.077 14.5667 128.227 14.5 128.394 14.5H137.169C137.352 14.5 137.502 14.5667 137.619 14.7C137.735 14.8167 137.794 14.9583 137.794 15.125C137.794 15.2917 137.735 15.4417 137.619 15.575C137.502 15.6917 137.352 15.75 137.169 15.75H129.019V22.475H135.794C135.96 22.475 136.102 22.5333 136.219 22.65C136.352 22.7667 136.419 22.9167 136.419 23.1C136.419 23.2667 136.352 23.4167 136.219 23.55C136.102 23.6667 135.96 23.725 135.794 23.725H129.019V30.75H137.169C137.352 30.75 137.502 30.8083 137.619 30.925C137.735 31.0417 137.794 31.1917 137.794 31.375C137.794 31.5417 137.735 31.6917 137.619 31.825C137.502 31.9417 137.352 32 137.169 32H128.394ZM141.724 32.35C141.557 32.35 141.407 32.2917 141.274 32.175C141.157 32.0583 141.099 31.9167 141.099 31.75V15.125C141.099 14.9583 141.157 14.8167 141.274 14.7C141.407 14.5667 141.557 14.5 141.724 14.5H147.874C148.807 14.5 149.649 14.7333 150.399 15.2C151.165 15.65 151.774 16.2583 152.224 17.025C152.69 17.775 152.924 18.6083 152.924 19.525C152.924 20.3083 152.749 21.0417 152.399 21.725C152.065 22.4083 151.607 22.9917 151.024 23.475C150.44 23.9417 149.774 24.2583 149.024 24.425L152.899 31.45C152.982 31.6167 152.999 31.7833 152.949 31.95C152.899 32.1 152.807 32.2167 152.674 32.3C152.507 32.3833 152.34 32.4 152.174 32.35C152.024 32.3 151.907 32.2 151.824 32.05L147.699 24.575H144.049C143.882 24.575 143.732 24.5167 143.599 24.4C143.482 24.2667 143.424 24.1167 143.424 23.95C143.424 23.7667 143.482 23.6167 143.599 23.5C143.732 23.3833 143.882 23.325 144.049 23.325H147.874C148.574 23.325 149.207 23.1583 149.774 22.825C150.357 22.475 150.815 22.0167 151.149 21.45C151.499 20.8667 151.674 20.225 151.674 19.525C151.674 18.825 151.499 18.1917 151.149 17.625C150.815 17.0583 150.357 16.6083 149.774 16.275C149.207 15.925 148.574 15.75 147.874 15.75H142.349V31.75C142.349 31.9167 142.29 32.0583 142.174 32.175C142.057 32.2917 141.907 32.35 141.724 32.35ZM156.812 32.35C156.645 32.35 156.495 32.2917 156.362 32.175C156.245 32.0583 156.187 31.9167 156.187 31.75V15.125C156.187 14.9583 156.245 14.8167 156.362 14.7C156.495 14.5667 156.645 14.5 156.812 14.5H162.787C163.72 14.5 164.562 14.7333 165.312 15.2C166.078 15.65 166.687 16.2583 167.137 17.025C167.587 17.775 167.812 18.6083 167.812 19.525C167.812 20.4417 167.587 21.2833 167.137 22.05C166.687 22.8167 166.078 23.4333 165.312 23.9C164.562 24.35 163.72 24.575 162.787 24.575H157.437V31.75C157.437 31.9167 157.378 32.0583 157.262 32.175C157.145 32.2917 156.995 32.35 156.812 32.35ZM157.437 23.325H162.787C163.487 23.325 164.12 23.1583 164.687 22.825C165.253 22.475 165.703 22.0167 166.037 21.45C166.387 20.8667 166.562 20.225 166.562 19.525C166.562 18.825 166.387 18.1917 166.037 17.625C165.703 17.0583 165.253 16.6083 164.687 16.275C164.12 15.925 163.487 15.75 162.787 15.75H157.437V23.325ZM176.34 32.325C175.156 32.325 174.115 32.0833 173.215 31.6C172.331 31.1 171.64 30.4083 171.14 29.525C170.656 28.6417 170.415 27.6083 170.415 26.425V14.8C170.415 14.6167 170.473 14.4667 170.59 14.35C170.723 14.2333 170.873 14.175 171.04 14.175C171.223 14.175 171.373 14.2333 171.49 14.35C171.606 14.4667 171.665 14.6167 171.665 14.8V26.425C171.665 27.825 172.09 28.95 172.94 29.8C173.806 30.65 174.94 31.075 176.34 31.075C177.74 31.075 178.865 30.65 179.715 29.8C180.565 28.95 180.99 27.825 180.99 26.425V14.8C180.99 14.6167 181.048 14.4667 181.165 14.35C181.298 14.2333 181.448 14.175 181.615 14.175C181.798 14.175 181.948 14.2333 182.065 14.35C182.181 14.4667 182.24 14.6167 182.24 14.8V26.425C182.24 27.6083 181.99 28.6417 181.49 29.525C181.006 30.4083 180.323 31.1 179.44 31.6C178.556 32.0833 177.523 32.325 176.34 32.325ZM191.376 32.325C190.176 32.325 189.043 32.1167 187.976 31.7C186.91 31.2833 186.026 30.7 185.326 29.95C184.993 29.6667 185.001 29.375 185.351 29.075C185.651 28.8083 185.935 28.8167 186.201 29.1C186.785 29.7167 187.535 30.2 188.451 30.55C189.368 30.9 190.343 31.075 191.376 31.075C192.81 31.075 193.926 30.7833 194.726 30.2C195.526 29.6167 195.926 28.8083 195.926 27.775C195.926 26.6917 195.51 25.825 194.676 25.175C193.843 24.525 192.543 24.0667 190.776 23.8C189.06 23.5167 187.793 22.975 186.976 22.175C186.16 21.375 185.751 20.2583 185.751 18.825C185.751 17.3417 186.226 16.1917 187.176 15.375C188.126 14.5417 189.443 14.125 191.126 14.125C191.993 14.125 192.893 14.2917 193.826 14.625C194.76 14.9583 195.626 15.4167 196.426 16C196.743 16.2667 196.776 16.5583 196.526 16.875C196.276 17.2083 195.993 17.25 195.676 17C194.993 16.4833 194.243 16.0833 193.426 15.8C192.626 15.5167 191.86 15.375 191.126 15.375C189.826 15.375 188.81 15.6833 188.076 16.3C187.36 16.9 187.001 17.7417 187.001 18.825C187.001 19.8917 187.318 20.7333 187.951 21.35C188.601 21.95 189.61 22.3583 190.976 22.575C193.11 22.8917 194.676 23.475 195.676 24.325C196.676 25.1583 197.176 26.3083 197.176 27.775C197.176 29.1917 196.668 30.3083 195.651 31.125C194.635 31.925 193.21 32.325 191.376 32.325Z" fill="#003261"/>
<path d="M10.6428 35.875C9.59278 35.875 8.69533 35.5083 7.9505 34.7748C7.20567 34.0391 6.83325 33.1576 6.83325 32.1303V8.93459C6.83325 7.88339 7.20567 6.98538 7.9505 6.24054C8.69533 5.49571 9.59278 5.12386 10.6428 5.125H28.3839V30.094H10.6428C10.0711 30.094 9.57797 30.2905 9.16342 30.6834C8.74772 31.0763 8.53988 31.5586 8.53988 32.1303C8.53988 32.7009 8.74772 33.1832 9.16342 33.5773C9.57797 33.9702 10.0711 34.1667 10.6428 34.1667H32.4583V8.54167H34.1666V35.875H10.6428ZM10.6428 28.3857H26.6773V6.83334H10.6428C10.0495 6.83334 9.55064 7.04118 9.14634 7.45688C8.74317 7.87029 8.54159 8.36286 8.54159 8.93459V29.0758C8.84909 28.8811 9.17595 28.7171 9.52217 28.5838C9.86839 28.4506 10.2425 28.384 10.6445 28.384M12.6143 22.6662H14.0083L15.0196 19.9533H20.2403L21.243 22.6662H22.6029L18.414 11.4971H16.8373L12.6143 22.6662ZM15.486 18.6721L17.6316 12.9287H17.6521L19.7636 18.6721H15.486Z" fill="#003261"/>
</svg>
