<svg width="38" height="42" viewBox="0 0 38 42" fill="none" xmlns="http://www.w3.org/2000/svg">
<path d="M1.66675 13C1.66675 7.344 1.66675 4.514 3.57125 2.758C5.47358 1 8.53941 1 14.6667 1H23.3334C29.4607 1 32.5266 1 34.4289 2.758C36.3334 4.514 36.3334 7.344 36.3334 13V29C36.3334 34.656 36.3334 37.486 34.4289 39.242C32.5266 41 29.4607 41 23.3334 41H14.6667C8.53941 41 5.47358 41 3.57125 39.242C1.66675 37.486 1.66675 34.656 1.66675 29V13Z" stroke="black" stroke-width="1.5"/>
<path d="M36.1124 29H10.1124C8.09741 29 7.08991 29 6.26225 29.204C5.16009 29.4768 4.15515 30.0126 3.34847 30.7576C2.54178 31.5026 1.96177 32.4305 1.66675 33.448" stroke="black" stroke-width="1.5"/>
<path d="M10.3335 11H27.6668M10.3335 18H21.1668" stroke="black" stroke-width="1.5" stroke-linecap="round"/>
</svg>
