<svg width="32" height="32" viewBox="0 0 32 32" fill="none" xmlns="http://www.w3.org/2000/svg">
<rect width="32" height="32" fill="#1E1E1E"/>
<path d="M-3572 -484C-3572 -485.105 -3571.1 -486 -3570 -486H6069C6070.1 -486 6071 -485.105 6071 -484V5135C6071 5136.1 6070.1 5137 6069 5137H-3570C-3571.1 5137 -3572 5136.1 -3572 5135V-484Z" fill="#444444"/>
<path d="M-3570 -485H6069V-487H-3570V-485ZM6070 -484V5135H6072V-484H6070ZM6069 5136H-3570V5138H6069V5136ZM-3571 5135V-484H-3573V5135H-3571ZM-3570 5136C-3570.55 5136 -3571 5135.55 -3571 5135H-3573C-3573 5136.66 -3571.66 5138 -3570 5138V5136ZM6070 5135C6070 5135.55 6069.55 5136 6069 5136V5138C6070.66 5138 6072 5136.66 6072 5135H6070ZM6069 -485C6069.55 -485 6070 -484.552 6070 -484H6072C6072 -485.657 6070.66 -487 6069 -487V-485ZM-3570 -487C-3571.66 -487 -3573 -485.657 -3573 -484H-3571C-3571 -484.552 -3570.55 -485 -3570 -485V-487Z" fill="white" fill-opacity="0.1"/>
<path d="M-3572 -484C-3572 -485.105 -3571.1 -486 -3570 -486H6069C6070.1 -486 6071 -485.105 6071 -484V5135C6071 5136.1 6070.1 5137 6069 5137H-3570C-3571.1 5137 -3572 5136.1 -3572 5135V-484Z" fill="#444444"/>
<path d="M-3570 -485H6069V-487H-3570V-485ZM6070 -484V5135H6072V-484H6070ZM6069 5136H-3570V5138H6069V5136ZM-3571 5135V-484H-3573V5135H-3571ZM-3570 5136C-3570.55 5136 -3571 5135.55 -3571 5135H-3573C-3573 5136.66 -3571.66 5138 -3570 5138V5136ZM6070 5135C6070 5135.55 6069.55 5136 6069 5136V5138C6070.66 5138 6072 5136.66 6072 5135H6070ZM6069 -485C6069.55 -485 6070 -484.552 6070 -484H6072C6072 -485.657 6070.66 -487 6069 -487V-485ZM-3570 -487C-3571.66 -487 -3573 -485.657 -3573 -484H-3571C-3571 -484.552 -3570.55 -485 -3570 -485V-487Z" fill="white" fill-opacity="0.1"/>
<rect width="1440" height="1024" transform="translate(-1363 -34)" fill="#E5E4E4"/>
<path fill-rule="evenodd" clip-rule="evenodd" d="M21.6668 11.75C21.6668 13.2529 21.0698 14.6942 20.0071 15.7569C18.9444 16.8196 17.5031 17.4166 16.0002 17.4166C14.4973 17.4166 13.0559 16.8196 11.9932 15.7569C10.9305 14.6942 10.3335 13.2529 10.3335 11.75C10.3335 10.2471 10.9305 8.80575 11.9932 7.74304C13.0559 6.68033 14.4973 6.08331 16.0002 6.08331C17.5031 6.08331 18.9444 6.68033 20.0071 7.74304C21.0698 8.80575 21.6668 10.2471 21.6668 11.75ZM18.8335 11.75C18.8335 12.5014 18.535 13.2221 18.0036 13.7534C17.4723 14.2848 16.7516 14.5833 16.0002 14.5833C15.2487 14.5833 14.528 14.2848 13.9967 13.7534C13.4653 13.2221 13.1668 12.5014 13.1668 11.75C13.1668 10.9985 13.4653 10.2779 13.9967 9.74651C14.528 9.21516 15.2487 8.91665 16.0002 8.91665C16.7516 8.91665 17.4723 9.21516 18.0036 9.74651C18.535 10.2779 18.8335 10.9985 18.8335 11.75Z" fill="#002B53"/>
<path fill-rule="evenodd" clip-rule="evenodd" d="M16.0001 0.416656C7.39383 0.416656 0.416748 7.39374 0.416748 16C0.416748 24.6062 7.39383 31.5833 16.0001 31.5833C24.6063 31.5833 31.5834 24.6062 31.5834 16C31.5834 7.39374 24.6063 0.416656 16.0001 0.416656ZM3.25008 16C3.25008 18.9608 4.26016 21.6865 5.95308 23.8512C7.14229 22.2902 8.67613 21.0251 10.4349 20.1547C12.1937 19.2843 14.1298 18.8321 16.0922 18.8333C18.0293 18.8311 19.9413 19.2712 21.6825 20.1202C23.4237 20.9692 24.948 22.2046 26.1392 23.7322C27.3666 22.1223 28.1931 20.2432 28.5502 18.2505C28.9073 16.2578 28.7847 14.2087 28.1926 12.2727C27.6005 10.3368 26.556 8.56964 25.1454 7.11754C23.7347 5.66544 21.9986 4.57012 20.0806 3.92221C18.1626 3.2743 16.1179 3.09242 14.1157 3.39162C12.1135 3.69082 10.2113 4.4625 8.5665 5.64282C6.92172 6.82313 5.58165 8.37814 4.65716 10.1792C3.73267 11.9802 3.25034 13.9755 3.25008 16ZM16.0001 28.75C13.0731 28.7547 10.2345 27.7478 7.96475 25.8997C8.87823 24.5915 10.0943 23.5235 11.5094 22.7865C12.9244 22.0495 14.4967 21.6653 16.0922 21.6667C17.6677 21.6653 19.2209 22.0399 20.6226 22.7593C22.0244 23.4788 23.2342 24.5224 24.1516 25.8033C21.8643 27.7116 18.9788 28.7547 16.0001 28.75Z" fill="#002B53"/>
</svg>
