<svg width="19" height="19" viewBox="0 0 19 19" fill="none" xmlns="http://www.w3.org/2000/svg">
<path d="M4.93216 16.625C4.44555 16.625 4.02966 16.4551 3.6845 16.1152C3.33933 15.7742 3.16675 15.3657 3.16675 14.8897V4.14042C3.16675 3.65328 3.33933 3.23713 3.6845 2.89196C4.02966 2.54679 4.44555 2.37447 4.93216 2.375H13.1536V13.946H4.93216C4.66722 13.946 4.43869 14.037 4.24658 14.2191C4.05394 14.4012 3.95762 14.6247 3.95762 14.8897C3.95762 15.1541 4.05394 15.3776 4.24658 15.5602C4.43869 15.7423 4.66722 15.8333 4.93216 15.8333H15.0417V3.95833H15.8334V16.625H4.93216ZM4.93216 13.1543H12.3627V3.16667H4.93216C4.65719 3.16667 4.42603 3.26299 4.23866 3.45563C4.05183 3.64721 3.95841 3.87547 3.95841 4.14042V13.4742C4.10091 13.3839 4.25239 13.3079 4.41283 13.2462C4.57328 13.1844 4.74665 13.1535 4.93296 13.1535M5.84575 10.5038H6.49175L6.96041 9.24667H9.37975L9.84446 10.5038H10.4746L8.53346 5.32792H7.80275L5.84575 10.5038ZM7.17654 8.65292L8.17087 5.99133H8.18037L9.15887 8.65292H7.17654Z" fill="black"/>
</svg>
