<svg width="22" height="22" viewBox="0 0 22 22" fill="none" xmlns="http://www.w3.org/2000/svg">
<g id="mynaui:trash">
<path id="Vector" d="M16.5 8.25L15.73 15.9482C15.6136 17.1151 15.5558 17.6981 15.29 18.139C15.0568 18.5271 14.714 18.8375 14.3046 19.0309C13.8398 19.25 13.255 19.25 12.0817 19.25H9.91833C8.74592 19.25 8.16017 19.25 7.69542 19.03C7.28571 18.8367 6.94248 18.5263 6.70908 18.1381C6.44508 17.6981 6.38642 17.1151 6.26908 15.9482L5.5 8.25M12.375 14.2083V9.625M9.625 14.2083V9.625M4.125 5.95833H8.35542M8.35542 5.95833L8.70925 3.509C8.81192 3.0635 9.18225 2.75 9.60758 2.75H12.3924C12.8178 2.75 13.1872 3.0635 13.2907 3.509L13.6446 5.95833M8.35542 5.95833H13.6446M13.6446 5.95833H17.875" stroke="black" stroke-width="1.5" stroke-linecap="round" stroke-linejoin="round"/>
</g>
</svg>
