<svg width="22" height="20" viewBox="0 0 22 20" fill="none" xmlns="http://www.w3.org/2000/svg">
<path d="M21.5 11.75V17.75C21.5 18.1478 21.342 18.5294 21.0607 18.8107C20.7794 19.092 20.3978 19.25 20 19.25H2C1.60218 19.25 1.22064 19.092 0.93934 18.8107C0.658035 18.5294 0.5 18.1478 0.5 17.75V11.75C0.5 11.3522 0.658035 10.9706 0.93934 10.6893C1.22064 10.408 1.60218 10.25 2 10.25H5.75C5.94891 10.25 6.13968 10.329 6.28033 10.4697C6.42098 10.6103 6.5 10.8011 6.5 11C6.5 11.1989 6.42098 11.3897 6.28033 11.5303C6.13968 11.671 5.94891 11.75 5.75 11.75H2V17.75H20V11.75H16.25C16.0511 11.75 15.8603 11.671 15.7197 11.5303C15.579 11.3897 15.5 11.1989 15.5 11C15.5 10.8011 15.579 10.6103 15.7197 10.4697C15.8603 10.329 16.0511 10.25 16.25 10.25H20C20.3978 10.25 20.7794 10.408 21.0607 10.6893C21.342 10.9706 21.5 11.3522 21.5 11.75ZM10.4694 11.5306C10.539 11.6004 10.6217 11.6557 10.7128 11.6934C10.8038 11.7312 10.9014 11.7506 11 11.7506C11.0986 11.7506 11.1962 11.7312 11.2872 11.6934C11.3783 11.6557 11.461 11.6004 11.5306 11.5306L16.0306 7.03063C16.1714 6.88989 16.2504 6.69902 16.2504 6.5C16.2504 6.30098 16.1714 6.11011 16.0306 5.96937C15.8899 5.82864 15.699 5.74958 15.5 5.74958C15.301 5.74958 15.1101 5.82864 14.9694 5.96937L11.75 9.18969V1.25C11.75 1.05109 11.671 0.860322 11.5303 0.71967C11.3897 0.579018 11.1989 0.5 11 0.5C10.8011 0.5 10.6103 0.579018 10.4697 0.71967C10.329 0.860322 10.25 1.05109 10.25 1.25V9.18969L7.03063 5.96937C6.88989 5.82864 6.69902 5.74958 6.5 5.74958C6.30098 5.74958 6.11011 5.82864 5.96938 5.96938C5.82864 6.11011 5.74958 6.30098 5.74958 6.5C5.74958 6.69902 5.82864 6.88989 5.96937 7.03063L10.4694 11.5306ZM17.75 14.75C17.75 14.5275 17.684 14.31 17.5604 14.125C17.4368 13.94 17.2611 13.7958 17.0555 13.7106C16.85 13.6255 16.6238 13.6032 16.4055 13.6466C16.1873 13.69 15.9868 13.7972 15.8295 13.9545C15.6722 14.1118 15.565 14.3123 15.5216 14.5305C15.4782 14.7488 15.5005 14.975 15.5856 15.1805C15.6708 15.3861 15.815 15.5618 16 15.6854C16.185 15.809 16.4025 15.875 16.625 15.875C16.9234 15.875 17.2095 15.7565 17.4205 15.5455C17.6315 15.3345 17.75 15.0484 17.75 14.75Z" fill="white"/>
</svg>
