<svg width="21" height="21" viewBox="0 0 21 21" fill="none" xmlns="http://www.w3.org/2000/svg">
<g id="mingcute:edit-line">
<g id="Group">
<path id="Vector" d="M11.375 2.625C11.598 2.62525 11.8125 2.71064 11.9747 2.86374C12.1369 3.01684 12.2345 3.22608 12.2475 3.44872C12.2606 3.67136 12.1882 3.89058 12.045 4.0616C11.9019 4.23262 11.6988 4.34253 11.4774 4.36888L11.375 4.375H4.375V16.625H16.625V9.625C16.6252 9.40198 16.7106 9.18747 16.8637 9.0253C17.0168 8.86313 17.2261 8.76554 17.4487 8.75247C17.6714 8.7394 17.8906 8.81184 18.0616 8.95498C18.2326 9.09812 18.3425 9.30117 18.3689 9.52263L18.375 9.625V16.625C18.3751 17.0665 18.2084 17.4917 17.9082 17.8155C17.608 18.1392 17.1965 18.3375 16.7562 18.3706L16.625 18.375H4.375C3.9335 18.3751 3.50825 18.2084 3.18452 17.9082C2.86079 17.608 2.66249 17.1965 2.62938 16.7562L2.625 16.625V4.375C2.62486 3.9335 2.79161 3.50825 3.09181 3.18452C3.39201 2.86079 3.80349 2.66249 4.24375 2.62938L4.375 2.625H11.375ZM16.8376 2.92512C16.9951 2.7682 17.2064 2.67709 17.4286 2.6703C17.6508 2.66352 17.8672 2.74156 18.034 2.88859C18.2007 3.03562 18.3053 3.24061 18.3263 3.46192C18.3474 3.68322 18.2835 3.90426 18.1475 4.08013L18.0749 4.16325L9.41237 12.8249C9.25491 12.9818 9.04362 13.0729 8.82141 13.0797C8.59921 13.0865 8.38275 13.0084 8.21601 12.8614C8.04926 12.7144 7.94473 12.5094 7.92365 12.2881C7.90257 12.0668 7.96652 11.8457 8.1025 11.6699L8.17513 11.5876L16.8376 2.92512Z" fill="black"/>
</g>
</g>
</svg>
