<svg width="17" height="17" viewBox="0 0 17 17" fill="none" xmlns="http://www.w3.org/2000/svg">
<path d="M4.65939 10.9664C3.6571 11.5628 1.02918 12.7812 2.63001 14.3062C3.41131 15.0507 4.28185 15.5833 5.37622 15.5833H11.6223C12.7174 15.5833 13.5879 15.0507 14.3692 14.3062C15.9701 12.7812 13.3421 11.5628 12.3398 10.9664C11.1766 10.2792 9.85031 9.91674 8.49926 9.91674C7.14822 9.91674 5.82262 10.2792 4.65939 10.9664ZM11.6875 4.60417C11.6875 5.44955 11.3516 6.2603 10.7539 6.85807C10.1561 7.45585 9.34535 7.79167 8.49997 7.79167C7.65459 7.79167 6.84384 7.45585 6.24607 6.85807C5.6483 6.2603 5.31247 5.44955 5.31247 4.60417C5.31247 3.75879 5.6483 2.94804 6.24607 2.35027C6.84384 1.7525 7.65459 1.41667 8.49997 1.41667C9.34535 1.41667 10.1561 1.7525 10.7539 2.35027C11.3516 2.94804 11.6875 3.75879 11.6875 4.60417Z" stroke="black" stroke-width="1.5" stroke-linecap="round" stroke-linejoin="round"/>
</svg>
